HIERARCHY
ROOT Hips
{
	OFFSET 0.00000 0.00000 0.00000
	CHANNELS 6 Xposition Yposition Zposition Zrotation Yrotation Xrotation 
	JOINT LHipJoint
	{
		OFFSET 0 0 0
		CHANNELS 3 Zrotation Yrotation Xrotation
		JOINT LeftUpLeg
		{
			OFFSET 1.46561 -1.72757 0.83774
			CHANNELS 3 Zrotation Yrotation Xrotation
			JOINT LeftLeg
			{
				OFFSET 2.48915 -6.83890 0.00000
				CHANNELS 3 Zrotation Yrotation Xrotation
				JOINT LeftFoot
				{
					OFFSET 2.60555 -7.15868 0.00000
					CHANNELS 3 Zrotation Yrotation Xrotation
					JOINT LeftToeBase
					{
						OFFSET 0.19248 -0.52884 2.26738
						CHANNELS 3 Zrotation Yrotation Xrotation
						End Site
						{
							OFFSET 0.00000 -0.00000 1.17015
						}
					}
				}
			}
		}
	}
	JOINT RHipJoint
	{
		OFFSET 0 0 0
		CHANNELS 3 Zrotation Yrotation Xrotation
		JOINT RightUpLeg
		{
			OFFSET -1.46918 -1.72757 0.83774
			CHANNELS 3 Zrotation Yrotation Xrotation
			JOINT RightLeg
			{
				OFFSET -2.49034 -6.84216 0.00000
				CHANNELS 3 Zrotation Yrotation Xrotation
				JOINT RightFoot
				{
					OFFSET -2.65971 -7.30750 0.00000
					CHANNELS 3 Zrotation Yrotation Xrotation
					JOINT RightToeBase
					{
						OFFSET -0.19227 -0.52827 2.30785
						CHANNELS 3 Zrotation Yrotation Xrotation
						End Site
						{
							OFFSET -0.00000 -0.00000 1.18972
						}
					}
				}
			}
		}
	}
	JOINT LowerBack
	{
		OFFSET 0 0 0
		CHANNELS 3 Zrotation Yrotation Xrotation
		JOINT Spine
		{
			OFFSET 0.02432 2.19909 -0.28000
			CHANNELS 3 Zrotation Yrotation Xrotation
			JOINT Spine1
			{
				OFFSET 0.03714 2.21816 -0.15261
				CHANNELS 3 Zrotation Yrotation Xrotation
				JOINT Neck
				{
					OFFSET 0 0 0
					CHANNELS 3 Zrotation Yrotation Xrotation
					JOINT Neck1
					{
						OFFSET -0.01896 1.56165 0.21681
						CHANNELS 3 Zrotation Yrotation Xrotation
						JOINT Head
						{
							OFFSET 0.02744 1.56009 0.06764
							CHANNELS 3 Zrotation Yrotation Xrotation
							End Site
							{
								OFFSET 0.01212 1.60574 0.00298
							}
						}
					}
				}
				JOINT LeftShoulder
				{
					OFFSET 0 0 0
					CHANNELS 3 Zrotation Yrotation Xrotation
					JOINT LeftArm
					{
						OFFSET 3.05595 1.48048 -0.60794
						CHANNELS 3 Zrotation Yrotation Xrotation
						JOINT LeftForeArm
						{
							OFFSET 5.20607 -0.00000 -0.00000
							CHANNELS 3 Zrotation Yrotation Xrotation
							JOINT LeftHand
							{
								OFFSET 3.39961 -0.00000 0.00000
								CHANNELS 3 Zrotation Yrotation Xrotation
								JOINT LeftFingerBase
								{
									OFFSET 0 0 0
									CHANNELS 3 Zrotation Yrotation Xrotation
									JOINT LeftHandIndex1
									{
										OFFSET 0.51969 -0.00000 0.00000
										CHANNELS 3 Zrotation Yrotation Xrotation
										End Site
										{
											OFFSET 0.41899 -0.00000 0.00000
										}
									}
								}
								JOINT LThumb
								{
									OFFSET 0 0 0
									CHANNELS 3 Zrotation Yrotation Xrotation
									End Site
									{
										OFFSET 0.42539 -0.00000 0.42539
									}
								}
							}
						}
					}
				}
				JOINT RightShoulder
				{
					OFFSET 0 0 0
					CHANNELS 3 Zrotation Yrotation Xrotation
					JOINT RightArm
					{
						OFFSET -2.99052 1.57608 -0.69102
						CHANNELS 3 Zrotation Yrotation Xrotation
						JOINT RightForeArm
						{
							OFFSET -5.32214 -0.00000 0.00000
							CHANNELS 3 Zrotation Yrotation Xrotation
							JOINT RightHand
							{
								OFFSET -3.51208 -0.00000 0.00000
								CHANNELS 3 Zrotation Yrotation Xrotation
								JOINT RightFingerBase
								{
									OFFSET 0 0 0
									CHANNELS 3 Zrotation Yrotation Xrotation
									JOINT RightHandIndex1
									{
										OFFSET -0.58668 -0.00000 0.00000
										CHANNELS 3 Zrotation Yrotation Xrotation
										End Site
										{
											OFFSET -0.47300 -0.00000 0.00000
										}
									}
								}
								JOINT RThumb
								{
									OFFSET 0 0 0
									CHANNELS 3 Zrotation Yrotation Xrotation
									End Site
									{
										OFFSET -0.48022 -0.00000 0.48022
									}
								}
							}
						}
					}
				}
			}
		}
	}
}
MOTION
Frames: 12
Frame Time: .0083333
0.3974 21.0371 -7.6602 -0.1119 2.0742 10.2783 0.0000 0.0000 0.0000 -14.7328 0.1154 -18.5052 4.8158 13.1733 40.0206 2.2520 8.0264 26.9954 0.0734 1.7479 4.8094 0.0000 0.0000 0.0000 17.6251 1.0179 -17.1372 -4.8642 -13.2293 40.2329 -1.5363 -17.0308 23.6098 -1.9846 -8.8339 25.2771 -2.7027 -1.2911 -2.2952 1.7790 -1.6761 3.0677 3.2528 -0.9585 4.5914 -3.0851 0.6190 -5.3979 1.4713 0.9522 22.6317 1.0867 0.3278 7.8282 -0.0000 -0.0000 0.0000 -84.8914 -15.0675 31.5107 8.5770 -14.4837 -1.0919 -0.0000 0.0000 -8.1917 24.8963 -5.9275 -2.7440 -7.1250 0.0000 -0.0000 -1.3479 23.4504 0.7004 -0.0000 -0.0000 0.0000 85.1337 8.9813 17.4114 -15.6105 24.9897 -3.4798 0.0000 0.0000 32.3567 -23.0448 -26.0312 10.5749 7.1250 -0.0000 -0.0000 7.6562 -57.7736 -2.4033
0.3958 21.1948 -7.5619 -0.1826 2.0972 9.6495 0.0000 0.0000 0.0000 -14.6338 0.1082 -19.4931 5.3366 13.7531 42.2574 2.1604 7.9123 26.4257 0.0982 2.0210 5.5637 0.0000 0.0000 0.0000 17.7164 1.1458 -18.0862 -5.3930 -13.8131 42.4941 -1.5063 -16.6464 23.3120 -1.9951 -8.8559 25.3455 -2.6886 -1.2449 -1.1525 1.8345 -1.6404 3.3585 3.3248 -0.9404 4.2439 -3.1153 0.5891 -5.6351 1.4585 0.9261 22.7700 1.0882 0.3110 7.9182 -0.0000 0.0000 0.0000 -85.1562 -15.1055 31.2407 8.5181 -14.3891 -1.0772 -0.0000 0.0000 -8.4417 24.5612 -5.7629 -2.6275 -7.1250 0.0000 -0.0000 -1.5925 23.6484 0.8203 -0.0000 0.0000 0.0000 85.2832 9.1134 16.6993 -15.3721 24.6620 -3.3797 0.0000 0.0000 32.7922 -22.9131 -26.1027 10.5352 7.1250 -0.0000 -0.0000 7.8322 -57.8178 -2.4673
0.3948 21.3433 -7.4640 -0.3026 2.1301 9.0046 0.0000 0.0000 0.0000 -14.4813 0.1318 -20.4544 5.8112 14.2429 44.2192 2.0374 7.6393 25.6471 0.1097 2.1354 5.8801 0.0000 0.0000 0.0000 17.8497 1.2223 -19.0628 -5.9142 -14.3447 44.6363 -1.4679 -15.9463 22.8737 -1.9374 -8.7344 24.9679 -2.6065 -1.1981 0.0717 1.9016 -1.6062 3.6376 3.3720 -0.9198 3.8372 -3.1090 0.5614 -5.8540 1.3956 0.9083 22.8929 1.0672 0.2967 8.0003 0.0000 -0.0000 0.0000 -85.4306 -15.1190 30.9399 8.4278 -14.2440 -1.0549 -0.0000 0.0000 -8.5110 24.2578 -5.5888 -2.5129 -7.1250 0.0000 -0.0000 -1.8143 23.8542 0.9260 0.0000 -0.0000 0.0000 85.4379 9.2211 16.0074 -15.1338 24.3322 -3.2809 0.0000 0.0000 33.1477 -22.7705 -26.1888 10.4951 7.1250 -0.0000 -0.0000 8.0272 -57.8746 -2.5403
0.3942 21.4820 -7.3659 -0.4544 2.1769 8.4124 0.0000 0.0000 0.0000 -14.2998 0.1628 -21.4443 6.2250 14.6429 45.8781 1.8898 7.3137 24.6833 0.1101 2.1396 5.8916 0.0000 0.0000 0.0000 18.0085 1.2782 -20.1360 -6.4198 -14.8232 46.6442 -1.4078 -15.1126 22.2605 -1.8511 -8.5487 24.3935 -2.4721 -1.1580 1.2954 1.9727 -1.5784 3.8809 3.3937 -0.8997 3.3943 -3.0712 0.5375 -6.0555 1.3035 0.8971 23.0227 1.0315 0.2851 8.0819 0.0000 0.0000 0.0000 -85.7015 -15.1017 30.6110 8.2975 -14.0339 -1.0231 -0.0000 0.0000 -8.3298 24.0042 -5.4592 -2.4259 -7.1250 0.0000 -0.0000 -2.0008 24.0079 1.0142 0.0000 0.0000 0.0000 85.6053 9.2970 15.3432 -14.8938 23.9980 -3.1826 0.0000 0.0000 33.4468 -22.6432 -26.2793 10.4640 7.1250 -0.0000 -0.0000 8.2079 -57.9390 -2.6107
0.3936 21.6092 -7.2680 -0.6112 2.2324 7.9318 0.0000 0.0000 0.0000 -14.1242 0.1811 -22.5190 6.5733 14.9618 47.2414 1.7261 7.0204 23.5675 0.1035 2.0744 5.7112 0.0000 0.0000 0.0000 18.1672 1.3542 -21.3640 -6.9037 -15.2503 48.5093 -1.3227 -14.2856 21.4751 -1.7694 -8.3683 23.8385 -2.3224 -1.1296 2.4536 2.0444 -1.5605 4.0767 3.4065 -0.8833 2.9414 -3.0206 0.5188 -6.2793 1.2071 0.8932 23.1869 0.9931 0.2773 8.1794 0.0000 0.0000 0.0000 -85.9699 -15.0630 30.2292 8.1269 -13.7583 -0.9821 -0.0000 0.0000 -7.8518 23.8213 -5.4122 -2.3845 -7.1250 0.0000 -0.0000 -2.1361 24.0675 1.0800 0.0000 0.0000 0.0000 85.7750 9.3470 14.7499 -14.6605 23.6710 -3.0883 0.0000 0.0000 33.6838 -22.5442 -26.3527 10.4407 7.1250 -0.0000 -0.0000 8.3504 -57.9921 -2.6671
0.3928 21.7239 -7.1710 -0.7561 2.2972 7.6079 0.0000 0.0000 0.0000 -13.9758 0.1593 -23.7303 6.8590 15.2120 48.3389 1.5560 6.8140 22.3494 0.0931 1.9676 5.4161 0.0000 0.0000 0.0000 18.3095 1.4813 -22.7863 -7.3585 -15.6265 50.2174 -1.2142 -13.5346 20.5256 -1.7052 -8.2231 23.3937 -2.1783 -1.1146 3.4959 2.1123 -1.5543 4.2181 3.4168 -0.8725 2.5003 -2.9499 0.5074 -6.5458 1.1071 0.8986 23.3928 0.9514 0.2746 8.2989 -0.0000 0.0000 0.0000 -86.2305 -15.0076 29.7933 7.9235 -13.4288 -0.9343 -0.0000 0.0000 -7.1277 23.6631 -5.3510 -2.3401 -7.1250 0.0000 -0.0000 -2.2532 24.1414 1.1355 -0.0000 0.0000 0.0000 85.9522 9.3949 14.2051 -14.4238 23.3373 -2.9939 0.0000 0.0000 33.9179 -22.4722 -26.4070 10.4239 7.1250 -0.0000 -0.0000 8.4546 -58.0316 -2.7088
0.3917 21.8253 -7.0750 -0.8603 2.3683 7.4589 0.0000 0.0000 0.0000 -13.8876 0.0818 -25.1013 7.0886 15.4061 49.2087 1.3889 6.7303 21.0853 0.0823 1.8500 5.0912 0.0000 0.0000 0.0000 18.4023 1.6734 -24.4099 -7.7745 -15.9509 51.7465 -1.0939 -12.8601 19.4720 -1.6555 -8.1082 23.0433 -2.0760 -1.1139 4.3939 2.1713 -1.5623 4.3107 3.4397 -0.8699 2.0934 -2.8675 0.5039 -6.8615 1.0094 0.9141 23.6196 0.9095 0.2776 8.4349 -0.0000 0.0000 0.0000 -86.4830 -14.9553 29.2846 7.6890 -13.0476 -0.8806 -0.0000 0.0000 -6.2201 23.5149 -5.2686 -2.2880 -7.1250 0.0000 -0.0000 -2.3628 24.2376 1.1855 -0.0000 0.0000 0.0000 86.1250 9.4420 13.7532 -14.2047 23.0267 -2.9077 0.0000 0.0000 34.1345 -22.4139 -26.4488 10.4095 7.1250 -0.0000 -0.0000 8.5381 -58.0615 -2.7419
0.3901 21.9132 -6.9796 -0.9032 2.4361 7.4732 0.0000 0.0000 0.0000 -13.8837 -0.0423 -26.6261 7.2695 15.5547 49.8863 1.2322 6.7785 19.8347 0.0739 1.7536 4.8253 0.0000 0.0000 0.0000 18.4206 1.9375 -26.1986 -8.1404 -16.2215 53.0667 -0.9715 -12.2619 18.3718 -1.6198 -8.0246 22.7888 -2.0448 -1.1209 5.1495 2.2178 -1.5788 4.3703 3.4878 -0.8735 1.7357 -2.7659 0.5080 -7.2348 0.9102 0.9392 23.8364 0.8649 0.2865 8.5787 0.0000 0.0000 0.0000 -86.7327 -14.9213 28.6870 7.4326 -12.6290 -0.8236 -0.0000 0.0000 -5.2036 23.3731 -5.1682 -2.2295 -7.1250 0.0000 -0.0000 -2.4677 24.3529 1.2317 0.0000 0.0000 0.0000 86.2930 9.5195 13.3520 -13.9879 22.7175 -2.8235 0.0000 0.0000 34.3839 -22.3910 -26.4619 10.4027 7.1250 -0.0000 -0.0000 8.5693 -58.0696 -2.7537
0.3881 21.9878 -6.8848 -0.8931 2.4976 7.6248 0.0000 0.0000 0.0000 -13.9529 -0.1967 -28.2838 7.4084 15.6664 50.4027 1.0888 6.9434 18.6305 0.0685 1.6888 4.6464 0.0000 0.0000 0.0000 18.3717 2.2704 -28.1029 -8.4446 -16.4367 54.1488 -0.8555 -11.7388 17.2865 -1.5890 -7.9518 22.5677 -2.0784 -1.1284 5.7814 2.2540 -1.5963 4.4070 3.5599 -0.8794 1.4261 -2.6547 0.5133 -7.6127 0.8229 0.9608 23.9836 0.8217 0.2963 8.7001 0.0000 -0.0000 0.0000 -86.9838 -14.9092 28.0009 7.1611 -12.1841 -0.7653 -0.0000 0.0000 -4.1719 23.1842 -5.0238 -2.1478 -7.1250 0.0000 -0.0000 -2.6078 24.5176 1.2918 0.0000 -0.0000 0.0000 86.4559 9.6267 12.9677 -13.7760 22.4136 -2.7421 0.0000 0.0000 34.6762 -22.3840 -26.4541 10.3963 7.1250 -0.0000 -0.0000 8.5732 -58.0602 -2.7530
0.3856 22.0494 -6.7897 -0.8399 2.5448 7.8657 0.0000 0.0000 0.0000 -14.0848 -0.3542 -30.0226 7.5101 15.7468 50.7783 0.9613 7.2070 17.5134 0.0710 1.7192 4.7303 0.0000 0.0000 0.0000 18.2645 2.6578 -30.0479 -8.6770 -16.5953 54.9662 -0.7514 -11.2792 16.2638 -1.5556 -7.8716 22.3247 -2.1692 -1.1289 6.3334 2.2802 -1.6066 4.4299 3.6526 -0.8828 1.1481 -2.5372 0.5175 -7.9742 0.7584 0.9727 24.0401 0.7834 0.3051 8.7876 -0.0000 0.0000 0.0000 -87.2431 -14.8978 27.2185 6.8898 -11.7378 -0.7091 -0.0000 0.0000 -3.2028 23.0583 -4.9883 -2.1198 -7.1250 0.0000 -0.0000 -2.7017 24.5611 1.3357 -0.0000 0.0000 0.0000 86.6143 9.7233 12.6025 -13.5901 22.1457 -2.6716 0.0000 0.0000 34.9749 -22.3904 -26.4430 10.3956 7.1250 -0.0000 -0.0000 8.5609 -58.0503 -2.7470
0.3825 22.0984 -6.6936 -0.7556 2.5764 8.1495 0.0000 0.0000 0.0000 -14.2650 -0.4922 -31.7910 7.5781 15.8000 51.0285 0.8486 7.5154 16.4922 0.0824 1.8518 5.0963 0.0000 0.0000 0.0000 18.1144 3.0809 -31.9681 -8.8313 -16.6979 55.5048 -0.6613 -10.8721 15.3280 -1.5102 -7.7612 21.9909 -2.3074 -1.1190 6.8461 2.2983 -1.6061 4.4477 3.7624 -0.8817 0.8878 -2.4001 0.5171 -8.3118 0.7090 0.9692 24.0152 0.7447 0.3106 8.8430 0.0000 0.0000 0.0000 -87.5156 -14.8732 26.3267 6.6261 -11.3023 -0.6564 -0.0000 0.0000 -2.3137 22.9499 -5.0051 -2.1157 -7.1250 0.0000 -0.0000 -2.7829 24.5472 1.3768 0.0000 0.0000 0.0000 86.7762 9.8147 12.2085 -13.4168 21.8949 -2.6067 0.0000 0.0000 35.2837 -22.4000 -26.4237 10.3936 7.1250 -0.0000 -0.0000 8.5411 -58.0325 -2.7369
0.3791 22.1354 -6.5961 -0.6592 2.5996 8.4332 0.0000 0.0000 0.0000 -14.4734 -0.6078 -33.5337 7.6136 15.8276 51.1587 0.7475 7.8143 15.5467 0.1023 2.0626 5.6786 0.0000 0.0000 0.0000 17.9442 3.5073 -33.8056 -8.9040 -16.7455 55.7575 -0.5871 -10.5053 14.5101 -1.4546 -7.6232 21.5754 -2.4666 -1.1005 7.3557 2.3071 -1.5968 4.4641 3.8743 -0.8760 0.6279 -2.2469 0.5096 -8.6078 0.6878 0.9437 23.9242 0.7099 0.3107 8.8680 -0.0000 0.0000 0.0000 -87.7908 -14.8072 25.3585 6.3791 -10.8930 -0.6089 -0.0000 0.0000 -1.5165 22.8765 -5.1072 -2.1510 -7.1250 0.0000 -0.0000 -2.8380 24.4396 1.4112 -0.0000 0.0000 0.0000 86.9527 9.8667 11.7891 -13.2677 21.6782 -2.5513 0.0000 0.0000 35.5669 -22.4082 -26.4190 10.3960 7.1250 -0.0000 -0.0000 8.5299 -58.0296 -2.7327
